<?xml version="1.0" encoding="UTF-8" standalone="no"?>
<!DOCTYPE svg PUBLIC "-//W3C//DTD SVG 1.1//EN"
 "http://www.w3.org/Graphics/SVG/1.1/DTD/svg11.dtd">
<!-- Generated by graphviz version 2.43.0 (0)
 -->
<!-- Pages: 1 -->
<svg width="1858pt" height="740pt"
 viewBox="0.00 0.00 1858.26 740.00" xmlns="http://www.w3.org/2000/svg" xmlns:xlink="http://www.w3.org/1999/xlink">
<g id="graph0" class="graph" transform="scale(1 1) rotate(0) translate(4 736)">
<polygon fill="white" stroke="transparent" points="-4,4 -4,-736 1854.26,-736 1854.26,4 -4,4"/>
<!-- BiochemicalReaction5874 -->
<g id="node1" class="node">
<title>BiochemicalReaction5874</title>
<ellipse fill="none" stroke="black" cx="1128.23" cy="-627" rx="278.35" ry="18"/>
<text text-anchor="middle" x="1128.23" y="-623.3" font-family="Times,serif" font-size="14.00">Active ROCK1,ROCK2 phosphorylates p&#45;5Y&#45;PTK2 on S732</text>
</g>
<!-- Complex7960 -->
<g id="node2" class="node">
<title>Complex7960</title>
<ellipse fill="none" stroke="black" cx="276.23" cy="-540" rx="276.45" ry="18"/>
<text text-anchor="middle" x="276.23" y="-536.3" font-family="Times,serif" font-size="14.00">VEGFA:p&#45;6Y&#45;VEGFR2:p&#45;SHB:p&#45;5Y&#45;PTK2:SRC&#45;1:HSP90AA1</text>
</g>
<!-- BiochemicalReaction5874&#45;&gt;Complex7960 -->
<g id="edge1" class="edge">
<title>BiochemicalReaction5874&#45;&gt;Complex7960</title>
<path fill="none" stroke="black" d="M983.7,-611.58C830.04,-596.25 587.96,-572.1 430.63,-556.4"/>
<polygon fill="black" stroke="black" points="430.69,-552.89 420.4,-555.38 430,-559.86 430.69,-552.89"/>
<text text-anchor="middle" x="766.73" y="-579.8" font-family="Times,serif" font-size="14.00">left</text>
</g>
<!-- Complex7965 -->
<g id="node3" class="node">
<title>Complex7965</title>
<ellipse fill="none" stroke="black" cx="880.23" cy="-540" rx="310.04" ry="18"/>
<text text-anchor="middle" x="880.23" y="-536.3" font-family="Times,serif" font-size="14.00">VEGFA:p&#45;6Y&#45;VEGFR2:pS&#45;SHB:p&#45;5Y,S732&#45;PTK2:SRC&#45;1:HSP90AA1</text>
</g>
<!-- BiochemicalReaction5874&#45;&gt;Complex7965 -->
<g id="edge2" class="edge">
<title>BiochemicalReaction5874&#45;&gt;Complex7965</title>
<path fill="none" stroke="black" d="M1079.23,-609.21C1039.02,-595.43 981.97,-575.87 939.25,-561.23"/>
<polygon fill="black" stroke="black" points="940.14,-557.84 929.54,-557.9 937.87,-564.46 940.14,-557.84"/>
<text text-anchor="middle" x="1037.23" y="-579.8" font-family="Times,serif" font-size="14.00">right</text>
</g>
<!-- SmallMolecule28 -->
<g id="node4" class="node">
<title>SmallMolecule28</title>
<ellipse fill="none" stroke="black" cx="1239.23" cy="-540" rx="30.59" ry="18"/>
<text text-anchor="middle" x="1239.23" y="-536.3" font-family="Times,serif" font-size="14.00">ADP</text>
</g>
<!-- BiochemicalReaction5874&#45;&gt;SmallMolecule28 -->
<g id="edge3" class="edge">
<title>BiochemicalReaction5874&#45;&gt;SmallMolecule28</title>
<path fill="none" stroke="black" d="M1150.42,-609C1168.5,-595.16 1194.05,-575.59 1213.11,-561"/>
<polygon fill="black" stroke="black" points="1215.29,-563.74 1221.1,-554.88 1211.03,-558.18 1215.29,-563.74"/>
<text text-anchor="middle" x="1209.23" y="-579.8" font-family="Times,serif" font-size="14.00">right</text>
</g>
<!-- SmallMolecule27 -->
<g id="node5" class="node">
<title>SmallMolecule27</title>
<ellipse fill="none" stroke="black" cx="1317.23" cy="-540" rx="29.5" ry="18"/>
<text text-anchor="middle" x="1317.23" y="-536.3" font-family="Times,serif" font-size="14.00">ATP</text>
</g>
<!-- BiochemicalReaction5874&#45;&gt;SmallMolecule27 -->
<g id="edge4" class="edge">
<title>BiochemicalReaction5874&#45;&gt;SmallMolecule27</title>
<path fill="none" stroke="black" d="M1184.07,-609.28C1199.58,-604.03 1216.27,-597.81 1231.23,-591 1251.39,-581.83 1272.93,-569.29 1289.41,-559.07"/>
<polygon fill="black" stroke="black" points="1291.41,-561.95 1298.01,-553.67 1287.68,-556.03 1291.41,-561.95"/>
<text text-anchor="middle" x="1273.73" y="-579.8" font-family="Times,serif" font-size="14.00">left</text>
</g>
<!-- Protein989 -->
<g id="node6" class="node">
<title>Protein989</title>
<ellipse fill="none" stroke="black" cx="560.23" cy="-453" rx="42.79" ry="18"/>
<text text-anchor="middle" x="560.23" y="-449.3" font-family="Times,serif" font-size="14.00">HSP90</text>
</g>
<!-- Complex7960&#45;&gt;Protein989 -->
<g id="edge5" class="edge">
<title>Complex7960&#45;&gt;Protein989</title>
<path fill="none" stroke="black" d="M335.02,-522.31C382,-508.84 449.49,-489.2 508.23,-471 511.36,-470.03 514.59,-469.01 517.83,-467.98"/>
<polygon fill="black" stroke="black" points="519.09,-471.25 527.54,-464.86 516.95,-464.59 519.09,-471.25"/>
<text text-anchor="middle" x="484.73" y="-492.8" font-family="Times,serif" font-size="14.00">component</text>
</g>
<!-- Complex7957 -->
<g id="node7" class="node">
<title>Complex7957</title>
<ellipse fill="none" stroke="black" cx="276.23" cy="-453" rx="222.86" ry="18"/>
<text text-anchor="middle" x="276.23" y="-449.3" font-family="Times,serif" font-size="14.00">VEGFA:p&#45;6Y&#45;VEGFR2:p&#45;SHB:p&#45;5Y&#45;PTK2:SRC&#45;1</text>
</g>
<!-- Complex7960&#45;&gt;Complex7957 -->
<g id="edge6" class="edge">
<title>Complex7960&#45;&gt;Complex7957</title>
<path fill="none" stroke="black" d="M276.23,-521.8C276.23,-510.16 276.23,-494.55 276.23,-481.24"/>
<polygon fill="black" stroke="black" points="279.73,-481.18 276.23,-471.18 272.73,-481.18 279.73,-481.18"/>
<text text-anchor="middle" x="315.73" y="-492.8" font-family="Times,serif" font-size="14.00">component</text>
</g>
<!-- Complex7965&#45;&gt;Protein989 -->
<g id="edge7" class="edge">
<title>Complex7965&#45;&gt;Protein989</title>
<path fill="none" stroke="black" d="M667.19,-526.9C610.98,-521.55 563.31,-514.11 554.23,-504 548.58,-497.71 548.05,-489.04 549.58,-480.68"/>
<polygon fill="black" stroke="black" points="553.02,-481.4 552.27,-470.83 546.26,-479.56 553.02,-481.4"/>
<text text-anchor="middle" x="593.73" y="-492.8" font-family="Times,serif" font-size="14.00">component</text>
</g>
<!-- Protein3333 -->
<g id="node8" class="node">
<title>Protein3333</title>
<ellipse fill="none" stroke="black" cx="597.23" cy="-366" rx="36.29" ry="18"/>
<text text-anchor="middle" x="597.23" y="-362.3" font-family="Times,serif" font-size="14.00">SRC1</text>
</g>
<!-- Complex7965&#45;&gt;Protein3333 -->
<g id="edge8" class="edge">
<title>Complex7965&#45;&gt;Protein3333</title>
<path fill="none" stroke="black" d="M770.57,-523.12C731.35,-513.19 688.83,-497.09 656.23,-471 631.12,-450.92 614.8,-417.07 605.82,-393.46"/>
<polygon fill="black" stroke="black" points="609.11,-392.26 602.42,-384.04 602.52,-394.64 609.11,-392.26"/>
<text text-anchor="middle" x="695.73" y="-449.3" font-family="Times,serif" font-size="14.00">component</text>
</g>
<!-- Complex7966 -->
<g id="node9" class="node">
<title>Complex7966</title>
<ellipse fill="none" stroke="black" cx="969.23" cy="-453" rx="224.76" ry="18"/>
<text text-anchor="middle" x="969.23" y="-449.3" font-family="Times,serif" font-size="14.00">VEGFA:p&#45;6Y&#45;VEGFR2:pS&#45;SHB:p&#45;5Y,S732&#45;PTK2</text>
</g>
<!-- Complex7965&#45;&gt;Complex7966 -->
<g id="edge9" class="edge">
<title>Complex7965&#45;&gt;Complex7966</title>
<path fill="none" stroke="black" d="M898.24,-521.8C911.39,-509.24 929.39,-492.05 943.97,-478.12"/>
<polygon fill="black" stroke="black" points="946.43,-480.61 951.24,-471.18 941.59,-475.55 946.43,-480.61"/>
<text text-anchor="middle" x="969.73" y="-492.8" font-family="Times,serif" font-size="14.00">component</text>
</g>
<!-- Complex7957&#45;&gt;Protein3333 -->
<g id="edge11" class="edge">
<title>Complex7957&#45;&gt;Protein3333</title>
<path fill="none" stroke="black" d="M343.43,-435.8C397.36,-422.56 474.9,-403 542.23,-384 547.21,-382.59 552.43,-381.06 557.58,-379.51"/>
<polygon fill="black" stroke="black" points="558.79,-382.8 567.33,-376.53 556.75,-376.1 558.79,-382.8"/>
<text text-anchor="middle" x="509.73" y="-405.8" font-family="Times,serif" font-size="14.00">component</text>
</g>
<!-- Complex7958 -->
<g id="node10" class="node">
<title>Complex7958</title>
<ellipse fill="none" stroke="black" cx="342.23" cy="-366" rx="191.17" ry="18"/>
<text text-anchor="middle" x="342.23" y="-362.3" font-family="Times,serif" font-size="14.00">VEGFA:p&#45;6Y&#45;VEGFR2:p&#45;SHB:p&#45;5Y&#45;PTK2</text>
</g>
<!-- Complex7957&#45;&gt;Complex7958 -->
<g id="edge10" class="edge">
<title>Complex7957&#45;&gt;Complex7958</title>
<path fill="none" stroke="black" d="M289.58,-434.8C299.06,-422.59 311.95,-405.99 322.6,-392.28"/>
<polygon fill="black" stroke="black" points="325.52,-394.22 328.89,-384.18 319.99,-389.93 325.52,-394.22"/>
<text text-anchor="middle" x="352.73" y="-405.8" font-family="Times,serif" font-size="14.00">component</text>
</g>
<!-- Complex7953 -->
<g id="node11" class="node">
<title>Complex7953</title>
<ellipse fill="none" stroke="black" cx="806.23" cy="-279" rx="211.46" ry="18"/>
<text text-anchor="middle" x="806.23" y="-275.3" font-family="Times,serif" font-size="14.00">VEGFA dimer:p&#45;6Y&#45;VEGFR2 dimer:p&#45;S&#45;SHB</text>
</g>
<!-- Complex7966&#45;&gt;Complex7953 -->
<g id="edge20" class="edge">
<title>Complex7966&#45;&gt;Complex7953</title>
<path fill="none" stroke="black" d="M969,-434.97C967.84,-412.65 962.77,-373.37 942.23,-348 924.55,-326.17 898.07,-310.74 873.16,-300.16"/>
<polygon fill="black" stroke="black" points="874.3,-296.84 863.72,-296.34 871.67,-303.33 874.3,-296.84"/>
<text text-anchor="middle" x="1000.73" y="-362.3" font-family="Times,serif" font-size="14.00">component</text>
</g>
<!-- Protein19455 -->
<g id="node19" class="node">
<title>Protein19455</title>
<ellipse fill="none" stroke="black" cx="848.23" cy="-366" rx="85.29" ry="18"/>
<text text-anchor="middle" x="848.23" y="-362.3" font-family="Times,serif" font-size="14.00">p&#45;5Y,S732&#45;PTK2</text>
</g>
<!-- Complex7966&#45;&gt;Protein19455 -->
<g id="edge21" class="edge">
<title>Complex7966&#45;&gt;Protein19455</title>
<path fill="none" stroke="black" d="M907.3,-435.68C896.17,-430.88 885.25,-424.76 876.23,-417 868.88,-410.69 863.07,-401.94 858.69,-393.53"/>
<polygon fill="black" stroke="black" points="861.78,-391.87 854.35,-384.32 855.45,-394.86 861.78,-391.87"/>
<text text-anchor="middle" x="915.73" y="-405.8" font-family="Times,serif" font-size="14.00">component</text>
</g>
<!-- Complex7958&#45;&gt;Complex7953 -->
<g id="edge12" class="edge">
<title>Complex7958&#45;&gt;Complex7953</title>
<path fill="none" stroke="black" d="M425.45,-349.75C505.77,-335.04 627.24,-312.79 711.29,-297.39"/>
<polygon fill="black" stroke="black" points="712.14,-300.79 721.35,-295.55 710.88,-293.91 712.14,-300.79"/>
<text text-anchor="middle" x="641.73" y="-318.8" font-family="Times,serif" font-size="14.00">component</text>
</g>
<!-- Protein19451 -->
<g id="node12" class="node">
<title>Protein19451</title>
<ellipse fill="none" stroke="black" cx="342.23" cy="-279" rx="57.69" ry="18"/>
<text text-anchor="middle" x="342.23" y="-275.3" font-family="Times,serif" font-size="14.00">p&#45;5Y&#45;PTK2</text>
</g>
<!-- Complex7958&#45;&gt;Protein19451 -->
<g id="edge13" class="edge">
<title>Complex7958&#45;&gt;Protein19451</title>
<path fill="none" stroke="black" d="M342.23,-347.8C342.23,-336.16 342.23,-320.55 342.23,-307.24"/>
<polygon fill="black" stroke="black" points="345.73,-307.18 342.23,-297.18 338.73,-307.18 345.73,-307.18"/>
<text text-anchor="middle" x="381.73" y="-318.8" font-family="Times,serif" font-size="14.00">component</text>
</g>
<!-- Complex7950 -->
<g id="node13" class="node">
<title>Complex7950</title>
<ellipse fill="none" stroke="black" cx="656.23" cy="-192" rx="168.97" ry="18"/>
<text text-anchor="middle" x="656.23" y="-188.3" font-family="Times,serif" font-size="14.00">VEGFA dimer:p&#45;6Y&#45;VEGFR2 dimer</text>
</g>
<!-- Complex7953&#45;&gt;Complex7950 -->
<g id="edge14" class="edge">
<title>Complex7953&#45;&gt;Complex7950</title>
<path fill="none" stroke="black" d="M776.23,-261C752.85,-247.76 720.22,-229.26 694.89,-214.91"/>
<polygon fill="black" stroke="black" points="696.34,-211.71 685.91,-209.82 692.89,-217.8 696.34,-211.71"/>
<text text-anchor="middle" x="779.73" y="-231.8" font-family="Times,serif" font-size="14.00">component</text>
</g>
<!-- Protein19450 -->
<g id="node14" class="node">
<title>Protein19450</title>
<ellipse fill="none" stroke="black" cx="890.23" cy="-192" rx="47.39" ry="18"/>
<text text-anchor="middle" x="890.23" y="-188.3" font-family="Times,serif" font-size="14.00">pS&#45;SHB</text>
</g>
<!-- Complex7953&#45;&gt;Protein19450 -->
<g id="edge15" class="edge">
<title>Complex7953&#45;&gt;Protein19450</title>
<path fill="none" stroke="black" d="M823.22,-260.8C835.84,-248.03 853.2,-230.47 867.08,-216.42"/>
<polygon fill="black" stroke="black" points="869.85,-218.6 874.39,-209.03 864.87,-213.68 869.85,-218.6"/>
<text text-anchor="middle" x="893.73" y="-231.8" font-family="Times,serif" font-size="14.00">component</text>
</g>
<!-- Complex6139 -->
<g id="node15" class="node">
<title>Complex6139</title>
<ellipse fill="none" stroke="black" cx="549.23" cy="-105" rx="94.48" ry="18"/>
<text text-anchor="middle" x="549.23" y="-101.3" font-family="Times,serif" font-size="14.00">VEGFA&#45;165 dimer</text>
</g>
<!-- Complex7950&#45;&gt;Complex6139 -->
<g id="edge16" class="edge">
<title>Complex7950&#45;&gt;Complex6139</title>
<path fill="none" stroke="black" d="M634.83,-174C618.54,-161.06 595.95,-143.12 578.07,-128.91"/>
<polygon fill="black" stroke="black" points="580.23,-126.16 570.22,-122.68 575.87,-131.64 580.23,-126.16"/>
<text text-anchor="middle" x="648.73" y="-144.8" font-family="Times,serif" font-size="14.00">component</text>
</g>
<!-- Complex7951 -->
<g id="node16" class="node">
<title>Complex7951</title>
<ellipse fill="none" stroke="black" cx="764.23" cy="-105" rx="102.88" ry="18"/>
<text text-anchor="middle" x="764.23" y="-101.3" font-family="Times,serif" font-size="14.00">p&#45;6Y&#45;VEGFR2 dimer</text>
</g>
<!-- Complex7950&#45;&gt;Complex7951 -->
<g id="edge17" class="edge">
<title>Complex7950&#45;&gt;Complex7951</title>
<path fill="none" stroke="black" d="M677.82,-174C694.26,-161.06 717.06,-143.12 735.12,-128.91"/>
<polygon fill="black" stroke="black" points="737.34,-131.61 743.04,-122.68 733.01,-126.11 737.34,-131.61"/>
<text text-anchor="middle" x="756.73" y="-144.8" font-family="Times,serif" font-size="14.00">component</text>
</g>
<!-- Protein16545 -->
<g id="node17" class="node">
<title>Protein16545</title>
<ellipse fill="none" stroke="black" cx="549.23" cy="-18" rx="63.89" ry="18"/>
<text text-anchor="middle" x="549.23" y="-14.3" font-family="Times,serif" font-size="14.00">VEGFA&#45;165</text>
</g>
<!-- Complex6139&#45;&gt;Protein16545 -->
<g id="edge18" class="edge">
<title>Complex6139&#45;&gt;Protein16545</title>
<path fill="none" stroke="black" d="M549.23,-86.8C549.23,-75.16 549.23,-59.55 549.23,-46.24"/>
<polygon fill="black" stroke="black" points="552.73,-46.18 549.23,-36.18 545.73,-46.18 552.73,-46.18"/>
<text text-anchor="middle" x="588.73" y="-57.8" font-family="Times,serif" font-size="14.00">component</text>
</g>
<!-- Protein19448 -->
<g id="node18" class="node">
<title>Protein19448</title>
<ellipse fill="none" stroke="black" cx="764.23" cy="-18" rx="72.59" ry="18"/>
<text text-anchor="middle" x="764.23" y="-14.3" font-family="Times,serif" font-size="14.00">p&#45;6Y&#45;VEGFR2</text>
</g>
<!-- Complex7951&#45;&gt;Protein19448 -->
<g id="edge19" class="edge">
<title>Complex7951&#45;&gt;Protein19448</title>
<path fill="none" stroke="black" d="M764.23,-86.8C764.23,-75.16 764.23,-59.55 764.23,-46.24"/>
<polygon fill="black" stroke="black" points="767.73,-46.18 764.23,-36.18 760.73,-46.18 767.73,-46.18"/>
<text text-anchor="middle" x="803.73" y="-57.8" font-family="Times,serif" font-size="14.00">component</text>
</g>
<!-- Catalysis2525 -->
<g id="node20" class="node">
<title>Catalysis2525</title>
<ellipse fill="none" stroke="black" cx="1345.23" cy="-714" rx="27" ry="18"/>
</g>
<!-- Catalysis2525&#45;&gt;BiochemicalReaction5874 -->
<g id="edge22" class="edge">
<title>Catalysis2525&#45;&gt;BiochemicalReaction5874</title>
<path fill="none" stroke="black" d="M1329.65,-699.15C1316.14,-687.85 1295.62,-672.28 1275.23,-663 1260.89,-656.48 1245.19,-651.09 1229.56,-646.66"/>
<polygon fill="black" stroke="black" points="1230.42,-643.27 1219.85,-644.03 1228.58,-650.02 1230.42,-643.27"/>
<text text-anchor="middle" x="1336.73" y="-666.8" font-family="Times,serif" font-size="14.00">controlled</text>
</g>
<!-- Complex7963 -->
<g id="node21" class="node">
<title>Complex7963</title>
<ellipse fill="none" stroke="black" cx="1637.23" cy="-627" rx="212.56" ry="18"/>
<text text-anchor="middle" x="1637.23" y="-623.3" font-family="Times,serif" font-size="14.00">RHOA:GTP:Mg2+:Activated ROCK1,ROCK2</text>
</g>
<!-- Catalysis2525&#45;&gt;Complex7963 -->
<g id="edge23" class="edge">
<title>Catalysis2525&#45;&gt;Complex7963</title>
<path fill="none" stroke="black" d="M1369.62,-705.9C1413.56,-693.11 1507.37,-665.8 1571.38,-647.17"/>
<polygon fill="black" stroke="black" points="1572.37,-650.52 1581,-644.37 1570.42,-643.8 1572.37,-650.52"/>
<text text-anchor="middle" x="1543.23" y="-666.8" font-family="Times,serif" font-size="14.00">controller</text>
</g>
<!-- Complex7964 -->
<g id="node22" class="node">
<title>Complex7964</title>
<ellipse fill="none" stroke="black" cx="1483.23" cy="-540" rx="92.88" ry="18"/>
<text text-anchor="middle" x="1483.23" y="-536.3" font-family="Times,serif" font-size="14.00">RHOA:GTP:Mg2+</text>
</g>
<!-- Complex7963&#45;&gt;Complex7964 -->
<g id="edge24" class="edge">
<title>Complex7963&#45;&gt;Complex7964</title>
<path fill="none" stroke="black" d="M1606.43,-609C1581.93,-595.48 1547.53,-576.5 1521.31,-562.02"/>
<polygon fill="black" stroke="black" points="1522.85,-558.87 1512.4,-557.1 1519.46,-565 1522.85,-558.87"/>
<text text-anchor="middle" x="1608.73" y="-579.8" font-family="Times,serif" font-size="14.00">component</text>
</g>
<!-- Protein19452 -->
<g id="node23" class="node">
<title>Protein19452</title>
<ellipse fill="none" stroke="black" cx="1722.23" cy="-540" rx="128.08" ry="18"/>
<text text-anchor="middle" x="1722.23" y="-536.3" font-family="Times,serif" font-size="14.00">Activated ROCK1,ROCK2</text>
</g>
<!-- Complex7963&#45;&gt;Protein19452 -->
<g id="edge25" class="edge">
<title>Complex7963&#45;&gt;Protein19452</title>
<path fill="none" stroke="black" d="M1654.43,-608.8C1666.95,-596.27 1684.08,-579.14 1697.99,-565.23"/>
<polygon fill="black" stroke="black" points="1700.74,-567.43 1705.34,-557.89 1695.79,-562.48 1700.74,-567.43"/>
<text text-anchor="middle" x="1723.73" y="-579.8" font-family="Times,serif" font-size="14.00">component</text>
</g>
<!-- SmallMolecule88 -->
<g id="node24" class="node">
<title>SmallMolecule88</title>
<ellipse fill="none" stroke="black" cx="1585.23" cy="-453" rx="30.59" ry="18"/>
<text text-anchor="middle" x="1585.23" y="-449.3" font-family="Times,serif" font-size="14.00">GTP</text>
</g>
<!-- Complex7964&#45;&gt;SmallMolecule88 -->
<g id="edge26" class="edge">
<title>Complex7964&#45;&gt;SmallMolecule88</title>
<path fill="none" stroke="black" d="M1532.08,-524.45C1543.33,-519.36 1554.53,-512.67 1563.23,-504 1569.69,-497.55 1574.41,-488.87 1577.77,-480.56"/>
<polygon fill="black" stroke="black" points="1581.07,-481.72 1581.13,-471.13 1574.48,-479.38 1581.07,-481.72"/>
<text text-anchor="middle" x="1612.73" y="-492.8" font-family="Times,serif" font-size="14.00">component</text>
</g>
<!-- SmallMolecule97 -->
<g id="node25" class="node">
<title>SmallMolecule97</title>
<ellipse fill="none" stroke="black" cx="1381.23" cy="-453" rx="39.79" ry="18"/>
<text text-anchor="middle" x="1381.23" y="-449.3" font-family="Times,serif" font-size="14.00">Mg2+</text>
</g>
<!-- Complex7964&#45;&gt;SmallMolecule97 -->
<g id="edge27" class="edge">
<title>Complex7964&#45;&gt;SmallMolecule97</title>
<path fill="none" stroke="black" d="M1431.79,-524.88C1420.27,-519.8 1408.91,-513 1400.23,-504 1394.08,-497.63 1389.88,-489.08 1387.03,-480.85"/>
<polygon fill="black" stroke="black" points="1390.35,-479.75 1384.17,-471.14 1383.63,-481.72 1390.35,-479.75"/>
<text text-anchor="middle" x="1439.73" y="-492.8" font-family="Times,serif" font-size="14.00">component</text>
</g>
<!-- Protein7599 -->
<g id="node26" class="node">
<title>Protein7599</title>
<ellipse fill="none" stroke="black" cx="1483.23" cy="-453" rx="38.99" ry="18"/>
<text text-anchor="middle" x="1483.23" y="-449.3" font-family="Times,serif" font-size="14.00">RHOA</text>
</g>
<!-- Complex7964&#45;&gt;Protein7599 -->
<g id="edge28" class="edge">
<title>Complex7964&#45;&gt;Protein7599</title>
<path fill="none" stroke="black" d="M1483.23,-521.8C1483.23,-510.16 1483.23,-494.55 1483.23,-481.24"/>
<polygon fill="black" stroke="black" points="1486.73,-481.18 1483.23,-471.18 1479.73,-481.18 1486.73,-481.18"/>
<text text-anchor="middle" x="1522.73" y="-492.8" font-family="Times,serif" font-size="14.00">component</text>
</g>
<!-- Pathway1496 -->
<g id="node27" class="node">
<title>Pathway1496</title>
<ellipse fill="none" stroke="black" cx="1128.23" cy="-714" rx="128.08" ry="18"/>
<text text-anchor="middle" x="1128.23" y="-710.3" font-family="Times,serif" font-size="14.00">VEGFA&#45;VEGFR2 Pathway</text>
</g>
<!-- Pathway1496&#45;&gt;BiochemicalReaction5874 -->
<g id="edge29" class="edge">
<title>Pathway1496&#45;&gt;BiochemicalReaction5874</title>
<path fill="none" stroke="black" d="M1128.23,-695.8C1128.23,-684.16 1128.23,-668.55 1128.23,-655.24"/>
<polygon fill="black" stroke="black" points="1131.73,-655.18 1128.23,-645.18 1124.73,-655.18 1131.73,-655.18"/>
<text text-anchor="middle" x="1199.73" y="-666.8" font-family="Times,serif" font-size="14.00">pathwayComponent</text>
</g>
</g>
</svg>
