<?xml version="1.0" encoding="UTF-8" standalone="no"?>
<!DOCTYPE svg PUBLIC "-//W3C//DTD SVG 1.1//EN"
 "http://www.w3.org/Graphics/SVG/1.1/DTD/svg11.dtd">
<!-- Generated by graphviz version 2.43.0 (0)
 -->
<!-- Pages: 1 -->
<svg width="586pt" height="218pt"
 viewBox="0.00 0.00 586.13 218.00" xmlns="http://www.w3.org/2000/svg" xmlns:xlink="http://www.w3.org/1999/xlink">
<g id="graph0" class="graph" transform="scale(1 1) rotate(0) translate(4 214)">
<polygon fill="white" stroke="transparent" points="-4,4 -4,-214 582.13,-214 582.13,4 -4,4"/>
<!-- BiochemicalReaction11477 -->
<g id="node1" class="node">
<title>BiochemicalReaction11477</title>
<ellipse fill="none" stroke="black" cx="374.69" cy="-105" rx="203.36" ry="18"/>
<text text-anchor="middle" x="374.69" y="-101.3" font-family="Times,serif" font-size="14.00">ADPGK:Mg2+ phosphorylates Glc to G6P</text>
</g>
<!-- SmallMolecule28 -->
<g id="node2" class="node">
<title>SmallMolecule28</title>
<ellipse fill="none" stroke="black" cx="426.69" cy="-18" rx="30.59" ry="18"/>
<text text-anchor="middle" x="426.69" y="-14.3" font-family="Times,serif" font-size="14.00">ADP</text>
</g>
<!-- BiochemicalReaction11477&#45;&gt;SmallMolecule28 -->
<g id="edge1" class="edge">
<title>BiochemicalReaction11477&#45;&gt;SmallMolecule28</title>
<path fill="none" stroke="black" d="M385.22,-86.8C392.76,-74.46 403.04,-57.66 411.48,-43.86"/>
<polygon fill="black" stroke="black" points="414.48,-45.67 416.72,-35.31 408.51,-42.01 414.48,-45.67"/>
<text text-anchor="middle" x="417.19" y="-57.8" font-family="Times,serif" font-size="14.00">left</text>
</g>
<!-- SmallMolecule98 -->
<g id="node3" class="node">
<title>SmallMolecule98</title>
<ellipse fill="none" stroke="black" cx="507.69" cy="-18" rx="32.49" ry="18"/>
<text text-anchor="middle" x="507.69" y="-14.3" font-family="Times,serif" font-size="14.00">AMP</text>
</g>
<!-- BiochemicalReaction11477&#45;&gt;SmallMolecule98 -->
<g id="edge2" class="edge">
<title>BiochemicalReaction11477&#45;&gt;SmallMolecule98</title>
<path fill="none" stroke="black" d="M404.01,-87.07C413.55,-81.44 424.14,-75.06 433.69,-69 449.06,-59.26 465.88,-47.95 479.59,-38.55"/>
<polygon fill="black" stroke="black" points="481.86,-41.24 488.11,-32.69 477.89,-35.48 481.86,-41.24"/>
<text text-anchor="middle" x="474.69" y="-57.8" font-family="Times,serif" font-size="14.00">right</text>
</g>
<!-- SmallMolecule1321 -->
<g id="node4" class="node">
<title>SmallMolecule1321</title>
<ellipse fill="none" stroke="black" cx="274.69" cy="-18" rx="30.59" ry="18"/>
<text text-anchor="middle" x="274.69" y="-14.3" font-family="Times,serif" font-size="14.00">G6P</text>
</g>
<!-- BiochemicalReaction11477&#45;&gt;SmallMolecule1321 -->
<g id="edge3" class="edge">
<title>BiochemicalReaction11477&#45;&gt;SmallMolecule1321</title>
<path fill="none" stroke="black" d="M346.31,-87C338.09,-81.62 329.28,-75.39 321.69,-69 312.21,-61.01 302.66,-51.25 294.67,-42.48"/>
<polygon fill="black" stroke="black" points="297.09,-39.92 287.82,-34.78 291.86,-44.58 297.09,-39.92"/>
<text text-anchor="middle" x="339.69" y="-57.8" font-family="Times,serif" font-size="14.00">right</text>
</g>
<!-- SmallMolecule1222 -->
<g id="node5" class="node">
<title>SmallMolecule1222</title>
<ellipse fill="none" stroke="black" cx="350.69" cy="-18" rx="27" ry="18"/>
<text text-anchor="middle" x="350.69" y="-14.3" font-family="Times,serif" font-size="14.00">Glc</text>
</g>
<!-- BiochemicalReaction11477&#45;&gt;SmallMolecule1222 -->
<g id="edge4" class="edge">
<title>BiochemicalReaction11477&#45;&gt;SmallMolecule1222</title>
<path fill="none" stroke="black" d="M369.84,-86.8C366.5,-74.97 362,-59.03 358.2,-45.58"/>
<polygon fill="black" stroke="black" points="361.55,-44.56 355.46,-35.89 354.81,-46.46 361.55,-44.56"/>
<text text-anchor="middle" x="377.19" y="-57.8" font-family="Times,serif" font-size="14.00">left</text>
</g>
<!-- Catalysis4341 -->
<g id="node6" class="node">
<title>Catalysis4341</title>
<ellipse fill="none" stroke="black" cx="228.69" cy="-192" rx="27" ry="18"/>
</g>
<!-- Catalysis4341&#45;&gt;BiochemicalReaction11477 -->
<g id="edge5" class="edge">
<title>Catalysis4341&#45;&gt;BiochemicalReaction11477</title>
<path fill="none" stroke="black" d="M245.34,-177.47C258.93,-166.8 278.9,-151.93 297.69,-141 306.26,-136.02 315.66,-131.23 324.87,-126.88"/>
<polygon fill="black" stroke="black" points="326.35,-130.05 333.96,-122.68 323.42,-123.69 326.35,-130.05"/>
<text text-anchor="middle" x="334.19" y="-144.8" font-family="Times,serif" font-size="14.00">controlled</text>
</g>
<!-- Complex13985 -->
<g id="node7" class="node">
<title>Complex13985</title>
<ellipse fill="none" stroke="black" cx="76.69" cy="-105" rx="76.89" ry="18"/>
<text text-anchor="middle" x="76.69" y="-101.3" font-family="Times,serif" font-size="14.00">ADPGK:Mg2+</text>
</g>
<!-- Catalysis4341&#45;&gt;Complex13985 -->
<g id="edge6" class="edge">
<title>Catalysis4341&#45;&gt;Complex13985</title>
<path fill="none" stroke="black" d="M208.51,-179.71C184.43,-166.25 143.7,-143.47 113.87,-126.79"/>
<polygon fill="black" stroke="black" points="115.43,-123.65 104.99,-121.82 112.01,-129.76 115.43,-123.65"/>
<text text-anchor="middle" x="197.69" y="-144.8" font-family="Times,serif" font-size="14.00">controller</text>
</g>
<!-- SmallMolecule3167 -->
<g id="node8" class="node">
<title>SmallMolecule3167</title>
<ellipse fill="none" stroke="black" cx="47.69" cy="-18" rx="39.79" ry="18"/>
<text text-anchor="middle" x="47.69" y="-14.3" font-family="Times,serif" font-size="14.00">Mg2+</text>
</g>
<!-- Complex13985&#45;&gt;SmallMolecule3167 -->
<g id="edge7" class="edge">
<title>Complex13985&#45;&gt;SmallMolecule3167</title>
<path fill="none" stroke="black" d="M59.65,-87.24C55.25,-81.87 51.08,-75.59 48.69,-69 46.12,-61.9 45.18,-53.85 45.06,-46.32"/>
<polygon fill="black" stroke="black" points="48.57,-46.26 45.36,-36.16 41.57,-46.06 48.57,-46.26"/>
<text text-anchor="middle" x="88.19" y="-57.8" font-family="Times,serif" font-size="14.00">component</text>
</g>
<!-- Protein28996 -->
<g id="node9" class="node">
<title>Protein28996</title>
<ellipse fill="none" stroke="black" cx="149.69" cy="-18" rx="44.69" ry="18"/>
<text text-anchor="middle" x="149.69" y="-14.3" font-family="Times,serif" font-size="14.00">ADPGK</text>
</g>
<!-- Complex13985&#45;&gt;Protein28996 -->
<g id="edge8" class="edge">
<title>Complex13985&#45;&gt;Protein28996</title>
<path fill="none" stroke="black" d="M105.7,-88.14C113.57,-82.83 121.6,-76.36 127.69,-69 133.37,-62.15 137.84,-53.6 141.23,-45.52"/>
<polygon fill="black" stroke="black" points="144.55,-46.63 144.83,-36.04 138.01,-44.15 144.55,-46.63"/>
<text text-anchor="middle" x="176.19" y="-57.8" font-family="Times,serif" font-size="14.00">component</text>
</g>
<!-- Pathway2256 -->
<g id="node10" class="node">
<title>Pathway2256</title>
<ellipse fill="none" stroke="black" cx="374.69" cy="-192" rx="57.69" ry="18"/>
<text text-anchor="middle" x="374.69" y="-188.3" font-family="Times,serif" font-size="14.00">Glycolysis</text>
</g>
<!-- Pathway2256&#45;&gt;BiochemicalReaction11477 -->
<g id="edge9" class="edge">
<title>Pathway2256&#45;&gt;BiochemicalReaction11477</title>
<path fill="none" stroke="black" d="M374.69,-173.8C374.69,-162.16 374.69,-146.55 374.69,-133.24"/>
<polygon fill="black" stroke="black" points="378.19,-133.18 374.69,-123.18 371.19,-133.18 378.19,-133.18"/>
<text text-anchor="middle" x="446.19" y="-144.8" font-family="Times,serif" font-size="14.00">pathwayComponent</text>
</g>
</g>
</svg>
